<?xml version="1.0" encoding="UTF-8"?>
<!DOCTYPE svg PUBLIC "-//W3C//DTD SVG 1.1//EN" "http://www.w3.org/Graphics/SVG/1.1/DTD/svg11.dtd">
<svg xmlns="http://www.w3.org/2000/svg" version="1.1" width="512px" height="512px" style="shape-rendering:geometricPrecision; text-rendering:geometricPrecision; image-rendering:optimizeQuality; fill-rule:evenodd; clip-rule:evenodd" xmlns:xlink="http://www.w3.org/1999/xlink">
<g><path style="opacity:0.99" fill="#396be8" d="M 358.5,41.5 C 364.171,41.1122 369.504,42.2788 374.5,45C 404.667,75.1667 434.833,105.333 465,135.5C 471.673,147.469 469.84,157.969 459.5,167C 450.644,171.906 441.978,171.572 433.5,166C 417,149.5 400.5,133 384,116.5C 383.667,200.833 383.333,285.167 383,369.5C 376.583,382.425 366.417,386.591 352.5,382C 346.656,378.837 342.823,374.004 341,367.5C 340.667,283.833 340.333,200.167 340,116.5C 323.167,133.333 306.333,150.167 289.5,167C 275.734,173.52 264.901,170.353 257,157.5C 254.32,149.302 255.32,141.635 260,134.5C 289.5,105 319,75.5 348.5,46C 351.815,44.1702 355.149,42.6702 358.5,41.5 Z"/></g>
<g><path style="opacity:0.399" fill="#396be8" d="M 142.5,127.5 C 156.37,125.011 165.537,130.345 170,143.5C 170.333,227.167 170.667,310.833 171,394.5C 188.195,376.971 205.695,359.804 223.5,343C 238.362,337.614 248.862,342.114 255,356.5C 256.509,363.794 255.176,370.46 251,376.5C 221.5,406 192,435.5 162.5,465C 153.445,470.929 144.445,470.929 135.5,465C 105.667,435.167 75.8333,405.333 46,375.5C 39.3269,363.531 41.1602,353.031 51.5,344C 60.3556,339.094 69.0223,339.428 77.5,345C 94,361.5 110.5,378 127,394.5C 127.333,310.5 127.667,226.5 128,142.5C 130.351,134.984 135.184,129.984 142.5,127.5 Z"/></g>
</svg>
