<?xml version="1.0" encoding="UTF-8"?>
<!DOCTYPE svg PUBLIC "-//W3C//DTD SVG 1.1//EN" "http://www.w3.org/Graphics/SVG/1.1/DTD/svg11.dtd">
<svg xmlns="http://www.w3.org/2000/svg" version="1.1" width="512px" height="512px" style="shape-rendering:geometricPrecision; text-rendering:geometricPrecision; image-rendering:optimizeQuality; fill-rule:evenodd; clip-rule:evenodd" xmlns:xlink="http://www.w3.org/1999/xlink">
<g><path style="opacity:0.994" fill="#3b82f6" d="M 250.5,41.5 C 290.835,41.3333 331.168,41.5 371.5,42C 380.021,43.4283 387.687,46.7617 394.5,52C 417.362,74.5281 439.862,97.3614 462,120.5C 465.746,126.323 468.08,132.657 469,139.5C 469.667,208.5 469.667,277.5 469,346.5C 465.813,366.02 454.646,378.186 435.5,383C 372.5,383.667 309.5,383.667 246.5,383C 228.23,378.397 217.064,366.897 213,348.5C 212.333,258.167 212.333,167.833 213,77.5C 217.903,57.4273 230.403,45.4273 250.5,41.5 Z M 362.5,74.5 C 366.599,74.3666 370.266,75.5333 373.5,78C 393.333,97.8333 413.167,117.667 433,137.5C 435.467,140.734 436.633,144.401 436.5,148.5C 379.5,156.167 354.833,131.5 362.5,74.5 Z"/></g>
<g><path style="opacity:0.297" fill="#3c83f5" d="M 75.5,127.5 C 107.167,127.5 138.833,127.5 170.5,127.5C 170.333,201.167 170.5,274.834 171,348.5C 177.792,391.591 202.625,417.091 245.5,425C 263.164,425.5 280.83,425.667 298.5,425.5C 297.048,449.786 284.381,464.286 260.5,469C 200.167,469.667 139.833,469.667 79.5,469C 58.3333,465.167 45.8333,452.667 42,431.5C 41.3333,342.5 41.3333,253.5 42,164.5C 45.3839,144.956 56.5505,132.623 75.5,127.5 Z"/></g>
</svg>
