<?xml version="1.0" encoding="UTF-8"?>
<!DOCTYPE svg PUBLIC "-//W3C//DTD SVG 1.1//EN" "http://www.w3.org/Graphics/SVG/1.1/DTD/svg11.dtd">
<svg xmlns="http://www.w3.org/2000/svg" version="1.1" width="512px" height="512px" style="shape-rendering:geometricPrecision; text-rendering:geometricPrecision; image-rendering:optimizeQuality; fill-rule:evenodd; clip-rule:evenodd" xmlns:xlink="http://www.w3.org/1999/xlink">
<g><path style="opacity:0.997" fill="#e6f4ff" d="M 464.5,46.5 C 325.167,47.8333 185.833,47.8333 46.5,46.5C 62.0629,30.3827 81.0629,20.5493 103.5,17C 154.103,13.4547 204.77,11.9547 255.5,12.5C 306.232,11.9355 356.899,13.4355 407.5,17C 429.937,20.5493 448.937,30.3827 464.5,46.5 Z"/></g>
<g><path style="opacity:0.998" fill="#e2f2ff" d="M 46.5,46.5 C 185.833,47.8333 325.167,47.8333 464.5,46.5C 476.026,56.872 484.026,69.5387 488.5,84.5C 333.167,84.5 177.833,84.5 22.5,84.5C 26.9745,69.5387 34.9745,56.872 46.5,46.5 Z"/></g>
<g><path style="opacity:0.998" fill="#ddf0ff" d="M 22.5,84.5 C 177.833,84.5 333.167,84.5 488.5,84.5C 491.39,90.3989 493.224,96.7322 494,103.5C 495.132,116.483 495.966,129.483 496.5,142.5C 426.381,140.508 356.047,139.842 285.5,140.5C 285.828,128.322 285.495,116.322 284.5,104.5C 281.924,98.421 277.591,96.921 271.5,100C 259.998,110.004 248.664,120.17 237.5,130.5C 233.792,134.21 229.792,137.543 225.5,140.5C 155.096,140.83 84.7623,140.496 14.5,139.5C 15.1338,127.492 15.9672,115.492 17,103.5C 17.7763,96.7322 19.6097,90.3989 22.5,84.5 Z"/></g>
<g><path style="opacity:1" fill="#4370ff" d="M 284.5,104.5 C 284.5,113.5 284.5,122.5 284.5,131.5C 268.658,131.83 252.991,131.496 237.5,130.5C 248.664,120.17 259.998,110.004 271.5,100C 277.591,96.921 281.924,98.421 284.5,104.5 Z"/></g>
<g><path style="opacity:0.998" fill="#d7eeff" d="M 14.5,139.5 C 84.7623,140.496 155.096,140.83 225.5,140.5C 216.024,149.732 206.357,158.732 196.5,167.5C 190.372,172.457 184.372,177.624 178.5,183C 162.5,183.333 146.5,183.667 130.5,184C 122.089,185.934 115.089,190.101 109.5,196.5C 109.167,196.5 108.833,196.5 108.5,196.5C 76.8333,196.5 45.1667,196.5 13.5,196.5C 13.7845,198.415 13.4511,200.081 12.5,201.5C 13.1667,180.833 13.8333,160.167 14.5,139.5 Z"/></g>
<g><path style="opacity:0.999" fill="#d7eeff" d="M 285.5,140.5 C 356.047,139.842 426.381,140.508 496.5,142.5C 497.119,160.502 497.786,178.502 498.5,196.5C 470.167,196.5 441.833,196.5 413.5,196.5C 413.827,186.985 413.494,177.652 412.5,168.5C 409.924,162.421 405.591,160.921 399.5,164C 398.695,165.113 398.028,166.279 397.5,167.5C 396.506,176.986 396.173,186.652 396.5,196.5C 359.5,196.5 322.5,196.5 285.5,196.5C 285.5,177.833 285.5,159.167 285.5,140.5 Z"/></g>
<g><path style="opacity:1" fill="#3a78ff" d="M 237.5,130.5 C 252.991,131.496 268.658,131.83 284.5,131.5C 284.5,143.833 284.5,156.167 284.5,168.5C 254.995,168.831 225.662,168.498 196.5,167.5C 206.357,158.732 216.024,149.732 225.5,140.5C 229.792,137.543 233.792,134.21 237.5,130.5 Z"/></g>
<g><path style="opacity:1" fill="#3480ff" d="M 196.5,167.5 C 225.662,168.498 254.995,168.831 284.5,168.5C 284.5,177.833 284.5,187.167 284.5,196.5C 226.167,196.5 167.833,196.5 109.5,196.5C 115.089,190.101 122.089,185.934 130.5,184C 146.5,183.667 162.5,183.333 178.5,183C 184.372,177.624 190.372,172.457 196.5,167.5 Z"/></g>
<g><path style="opacity:1" fill="#357fff" d="M 412.5,168.5 C 412.5,177.833 412.5,187.167 412.5,196.5C 407.5,196.5 402.5,196.5 397.5,196.5C 397.5,186.833 397.5,177.167 397.5,167.5C 398.028,166.279 398.695,165.113 399.5,164C 405.591,160.921 409.924,162.421 412.5,168.5 Z"/></g>
<g><path style="opacity:0.997" fill="#d1ebff" d="M 108.5,196.5 C 102.72,203.064 99.3868,210.731 98.5,219.5C 97.5054,230.321 97.1721,241.321 97.5,252.5C 69.1667,252.5 40.8333,252.5 12.5,252.5C 12.5,235.5 12.5,218.5 12.5,201.5C 13.4511,200.081 13.7845,198.415 13.5,196.5C 45.1667,196.5 76.8333,196.5 108.5,196.5 Z"/></g>
<g><path style="opacity:1" fill="#2e86ff" d="M 108.5,196.5 C 108.833,196.5 109.167,196.5 109.5,196.5C 167.833,196.5 226.167,196.5 284.5,196.5C 284.5,204.167 284.5,211.833 284.5,219.5C 222.5,219.5 160.5,219.5 98.5,219.5C 99.3868,210.731 102.72,203.064 108.5,196.5 Z"/></g>
<g><path style="opacity:1" fill="#d1ebff" d="M 285.5,196.5 C 322.5,196.5 359.5,196.5 396.5,196.5C 396.5,215.167 396.5,233.833 396.5,252.5C 387.833,252.5 379.167,252.5 370.5,252.5C 370.829,238.323 370.496,224.323 369.5,210.5C 366.583,204.215 362.25,203.049 356.5,207C 355.418,208.33 354.751,209.83 354.5,211.5C 353.504,224.99 353.171,238.656 353.5,252.5C 344.833,252.5 336.167,252.5 327.5,252.5C 327.784,250.585 327.451,248.919 326.5,247.5C 323.515,233.184 315.181,223.517 301.5,218.5C 300.505,229.654 300.172,240.988 300.5,252.5C 295.5,252.5 290.5,252.5 285.5,252.5C 285.5,233.833 285.5,215.167 285.5,196.5 Z"/></g>
<g><path style="opacity:0.997" fill="#d1ebff" d="M 413.5,196.5 C 441.833,196.5 470.167,196.5 498.5,196.5C 498.5,215.167 498.5,233.833 498.5,252.5C 470.167,252.5 441.833,252.5 413.5,252.5C 413.5,233.833 413.5,215.167 413.5,196.5 Z"/></g>
<g><path style="opacity:1" fill="#298cff" d="M 98.5,219.5 C 160.5,219.5 222.5,219.5 284.5,219.5C 284.5,227.5 284.5,235.5 284.5,243.5C 222.5,243.5 160.5,243.5 98.5,243.5C 98.5,235.5 98.5,227.5 98.5,219.5 Z"/></g>
<g><path style="opacity:1" fill="#2a8eff" d="M 301.5,218.5 C 315.181,223.517 323.515,233.184 326.5,247.5C 326.5,248.833 326.5,250.167 326.5,251.5C 318.167,251.5 309.833,251.5 301.5,251.5C 301.5,240.5 301.5,229.5 301.5,218.5 Z"/></g>
<g><path style="opacity:1" fill="#2c8bff" d="M 369.5,210.5 C 369.5,221.5 369.5,232.5 369.5,243.5C 364.5,243.5 359.5,243.5 354.5,243.5C 354.5,232.833 354.5,222.167 354.5,211.5C 354.751,209.83 355.418,208.33 356.5,207C 362.25,203.049 366.583,204.215 369.5,210.5 Z"/></g>
<g><path style="opacity:1" fill="#2b8aff" d="M 397.5,196.5 C 402.5,196.5 407.5,196.5 412.5,196.5C 412.5,212.167 412.5,227.833 412.5,243.5C 407.5,243.5 402.5,243.5 397.5,243.5C 397.5,227.833 397.5,212.167 397.5,196.5 Z"/></g>
<g><path style="opacity:1" fill="#2690ff" d="M 98.5,243.5 C 160.5,243.5 222.5,243.5 284.5,243.5C 284.5,246.167 284.5,248.833 284.5,251.5C 222.5,251.5 160.5,251.5 98.5,251.5C 98.5,248.833 98.5,246.167 98.5,243.5 Z"/></g>
<g><path style="opacity:1" fill="#2393ff" d="M 98.5,251.5 C 160.5,251.5 222.5,251.5 284.5,251.5C 284.5,256.833 284.5,262.167 284.5,267.5C 222.5,267.5 160.5,267.5 98.5,267.5C 98.5,262.167 98.5,256.833 98.5,251.5 Z"/></g>
<g><path style="opacity:1" fill="#2492ff" d="M 354.5,243.5 C 359.5,243.5 364.5,243.5 369.5,243.5C 369.5,251.5 369.5,259.5 369.5,267.5C 364.5,267.5 359.5,267.5 354.5,267.5C 354.5,259.5 354.5,251.5 354.5,243.5 Z"/></g>
<g><path style="opacity:1" fill="#2492ff" d="M 397.5,243.5 C 402.5,243.5 407.5,243.5 412.5,243.5C 412.5,251.5 412.5,259.5 412.5,267.5C 407.5,267.5 402.5,267.5 397.5,267.5C 397.5,259.5 397.5,251.5 397.5,243.5 Z"/></g>
<g><path style="opacity:0.998" fill="#cae8ff" d="M 98.5,219.5 C 98.5,227.5 98.5,235.5 98.5,243.5C 98.5,246.167 98.5,248.833 98.5,251.5C 98.5,256.833 98.5,262.167 98.5,267.5C 98.5,271.833 98.5,276.167 98.5,280.5C 98.5,284.833 98.5,289.167 98.5,293.5C 100.055,299.837 102.388,305.837 105.5,311.5C 74.6712,312.498 43.6712,312.831 12.5,312.5C 12.5,292.5 12.5,272.5 12.5,252.5C 40.8333,252.5 69.1667,252.5 97.5,252.5C 97.1721,241.321 97.5054,230.321 98.5,219.5 Z"/></g>
<g><path style="opacity:1" fill="#c9e8ff" d="M 354.5,211.5 C 354.5,222.167 354.5,232.833 354.5,243.5C 354.5,251.5 354.5,259.5 354.5,267.5C 354.333,278.838 354.5,290.172 355,301.5C 360.33,308.311 365.33,307.977 370,300.5C 370.5,284.503 370.667,268.503 370.5,252.5C 379.167,252.5 387.833,252.5 396.5,252.5C 396.5,272.5 396.5,292.5 396.5,312.5C 359.5,312.5 322.5,312.5 285.5,312.5C 285.5,292.5 285.5,272.5 285.5,252.5C 290.5,252.5 295.5,252.5 300.5,252.5C 300.5,265.833 300.5,279.167 300.5,292.5C 315.086,287.738 323.92,277.738 327,262.5C 327.498,259.183 327.665,255.85 327.5,252.5C 336.167,252.5 344.833,252.5 353.5,252.5C 353.171,238.656 353.504,224.99 354.5,211.5 Z"/></g>
<g><path style="opacity:0.998" fill="#cbe8ff" d="M 413.5,252.5 C 441.833,252.5 470.167,252.5 498.5,252.5C 498.5,272.167 498.5,291.833 498.5,311.5C 470.241,312.491 441.907,312.825 413.5,312.5C 413.5,292.5 413.5,272.5 413.5,252.5 Z"/></g>
<g><path style="opacity:1" fill="#2097ff" d="M 98.5,267.5 C 160.5,267.5 222.5,267.5 284.5,267.5C 284.5,271.833 284.5,276.167 284.5,280.5C 222.5,280.5 160.5,280.5 98.5,280.5C 98.5,276.167 98.5,271.833 98.5,267.5 Z"/></g>
<g><path style="opacity:1" fill="#2b99ff" d="M 301.5,218.5 C 301.5,229.5 301.5,240.5 301.5,251.5C 309.833,251.5 318.167,251.5 326.5,251.5C 326.5,250.167 326.5,248.833 326.5,247.5C 327.451,248.919 327.784,250.585 327.5,252.5C 327.665,255.85 327.498,259.183 327,262.5C 323.92,277.738 315.086,287.738 300.5,292.5C 300.5,279.167 300.5,265.833 300.5,252.5C 300.172,240.988 300.505,229.654 301.5,218.5 Z"/></g>
<g><path style="opacity:1" fill="#1e9aff" d="M 98.5,280.5 C 160.5,280.5 222.5,280.5 284.5,280.5C 284.5,285.167 284.5,289.833 284.5,294.5C 222.429,294.829 160.429,294.496 98.5,293.5C 98.5,289.167 98.5,284.833 98.5,280.5 Z"/></g>
<g><path style="opacity:1" fill="#2c9dff" d="M 369.5,210.5 C 370.496,224.323 370.829,238.323 370.5,252.5C 370.667,268.503 370.5,284.503 370,300.5C 365.33,307.977 360.33,308.311 355,301.5C 354.5,290.172 354.333,278.838 354.5,267.5C 359.5,267.5 364.5,267.5 369.5,267.5C 369.5,259.5 369.5,251.5 369.5,243.5C 369.5,232.5 369.5,221.5 369.5,210.5 Z"/></g>
<g><path style="opacity:1" fill="#1a9fff" d="M 98.5,293.5 C 160.429,294.496 222.429,294.829 284.5,294.5C 284.5,302.5 284.5,310.5 284.5,318.5C 227.5,318.5 170.5,318.5 113.5,318.5C 110.833,316.167 108.167,313.833 105.5,311.5C 102.388,305.837 100.055,299.837 98.5,293.5 Z"/></g>
<g><path style="opacity:1" fill="#1c9dff" d="M 397.5,267.5 C 402.5,267.5 407.5,267.5 412.5,267.5C 412.5,284.5 412.5,301.5 412.5,318.5C 407.5,318.5 402.5,318.5 397.5,318.5C 397.5,301.5 397.5,284.5 397.5,267.5 Z"/></g>
<g><path style="opacity:0.998" fill="#c4e5ff" d="M 105.5,311.5 C 108.167,313.833 110.833,316.167 113.5,318.5C 118.278,322.889 123.945,325.722 130.5,327C 146.5,327.333 162.5,327.667 178.5,328C 183.726,332.734 189.059,337.234 194.5,341.5C 202.899,350.236 211.899,358.236 221.5,365.5C 223.5,367.833 225.5,370.167 227.5,372.5C 156.598,373.17 85.5977,373.836 14.5,374.5C 13.976,353.828 13.3093,333.161 12.5,312.5C 43.6712,312.831 74.6712,312.498 105.5,311.5 Z"/></g>
<g><path style="opacity:0.998" fill="#c4e5ff" d="M 412.5,168.5 C 413.494,177.652 413.827,186.985 413.5,196.5C 413.5,215.167 413.5,233.833 413.5,252.5C 413.5,272.5 413.5,292.5 413.5,312.5C 441.907,312.825 470.241,312.491 498.5,311.5C 497.738,332.163 497.072,352.83 496.5,373.5C 426.167,373.5 355.833,373.5 285.5,373.5C 285.5,353.167 285.5,332.833 285.5,312.5C 322.5,312.5 359.5,312.5 396.5,312.5C 396.334,322.839 396.5,333.172 397,343.5C 399.541,348.069 403.375,349.569 408.5,348C 409.667,346.833 410.833,345.667 412,344.5C 412.5,335.84 412.666,327.173 412.5,318.5C 412.5,301.5 412.5,284.5 412.5,267.5C 412.5,259.5 412.5,251.5 412.5,243.5C 412.5,227.833 412.5,212.167 412.5,196.5C 412.5,187.167 412.5,177.833 412.5,168.5 Z"/></g>
<g><path style="opacity:1" fill="#16a5ff" d="M 113.5,318.5 C 170.5,318.5 227.5,318.5 284.5,318.5C 284.5,326.167 284.5,333.833 284.5,341.5C 254.5,341.5 224.5,341.5 194.5,341.5C 189.059,337.234 183.726,332.734 178.5,328C 162.5,327.667 146.5,327.333 130.5,327C 123.945,325.722 118.278,322.889 113.5,318.5 Z"/></g>
<g><path style="opacity:1" fill="#2fa8ff" d="M 397.5,167.5 C 397.5,177.167 397.5,186.833 397.5,196.5C 397.5,212.167 397.5,227.833 397.5,243.5C 397.5,251.5 397.5,259.5 397.5,267.5C 397.5,284.5 397.5,301.5 397.5,318.5C 402.5,318.5 407.5,318.5 412.5,318.5C 412.666,327.173 412.5,335.84 412,344.5C 410.833,345.667 409.667,346.833 408.5,348C 403.375,349.569 399.541,348.069 397,343.5C 396.5,333.172 396.334,322.839 396.5,312.5C 396.5,292.5 396.5,272.5 396.5,252.5C 396.5,233.833 396.5,215.167 396.5,196.5C 396.173,186.652 396.506,176.986 397.5,167.5 Z"/></g>
<g><path style="opacity:1" fill="#11abff" d="M 194.5,341.5 C 224.5,341.5 254.5,341.5 284.5,341.5C 284.5,349.5 284.5,357.5 284.5,365.5C 263.5,365.5 242.5,365.5 221.5,365.5C 211.899,358.236 202.899,350.236 194.5,341.5 Z"/></g>
<g><path style="opacity:1" fill="#0eb3ff" d="M 221.5,365.5 C 242.5,365.5 263.5,365.5 284.5,365.5C 284.667,379.837 284.5,394.171 284,408.5C 282.471,411.516 279.971,412.849 276.5,412.5C 275.167,412.333 273.833,412.167 272.5,412C 257.925,398.252 242.925,385.086 227.5,372.5C 225.5,370.167 223.5,367.833 221.5,365.5 Z"/></g>
<g><path style="opacity:0.998" fill="#bde3ff" d="M 284.5,104.5 C 285.495,116.322 285.828,128.322 285.5,140.5C 285.5,159.167 285.5,177.833 285.5,196.5C 285.5,215.167 285.5,233.833 285.5,252.5C 285.5,272.5 285.5,292.5 285.5,312.5C 285.5,332.833 285.5,353.167 285.5,373.5C 355.833,373.5 426.167,373.5 496.5,373.5C 496.128,388.28 494.628,402.946 492,417.5C 490.629,422.464 488.796,427.131 486.5,431.5C 409.836,430.167 332.836,429.5 255.5,429.5C 178.097,429.501 100.764,429.835 23.5,430.5C 17.2215,412.412 14.2215,393.746 14.5,374.5C 85.5977,373.836 156.598,373.17 227.5,372.5C 242.925,385.086 257.925,398.252 272.5,412C 273.833,412.167 275.167,412.333 276.5,412.5C 279.971,412.849 282.471,411.516 284,408.5C 284.5,394.171 284.667,379.837 284.5,365.5C 284.5,357.5 284.5,349.5 284.5,341.5C 284.5,333.833 284.5,326.167 284.5,318.5C 284.5,310.5 284.5,302.5 284.5,294.5C 284.5,289.833 284.5,285.167 284.5,280.5C 284.5,276.167 284.5,271.833 284.5,267.5C 284.5,262.167 284.5,256.833 284.5,251.5C 284.5,248.833 284.5,246.167 284.5,243.5C 284.5,235.5 284.5,227.5 284.5,219.5C 284.5,211.833 284.5,204.167 284.5,196.5C 284.5,187.167 284.5,177.833 284.5,168.5C 284.5,156.167 284.5,143.833 284.5,131.5C 284.5,122.5 284.5,113.5 284.5,104.5 Z"/></g>
<g><path style="opacity:0.999" fill="#b9e1ff" d="M 486.5,431.5 C 481.658,445.341 473.658,457.007 462.5,466.5C 324.666,466.167 186.999,466.5 49.5,467.5C 37.7239,457.384 29.0573,445.051 23.5,430.5C 100.764,429.835 178.097,429.501 255.5,429.5C 332.836,429.5 409.836,430.167 486.5,431.5 Z"/></g>
<g><path style="opacity:0.997" fill="#b6dfff" d="M 462.5,466.5 C 446.999,481.749 428.332,490.916 406.5,494C 356.235,497.587 305.902,499.087 255.5,498.5C 204.77,499.045 154.103,497.545 103.5,494C 82.5953,490.713 64.5953,481.88 49.5,467.5C 186.999,466.5 324.666,466.167 462.5,466.5 Z"/></g>
</svg>
